<svg xmlns="http://www.w3.org/2000/svg" viewBox="0 0 64 64">
  <defs>
    <radialGradient id="h" cx="42%" cy="38%" r="65%">
      <stop offset="0%" stop-color="#d68a4a"/>
      <stop offset="55%" stop-color="#a85d29"/>
      <stop offset="100%" stop-color="#5a2e12"/>
    </radialGradient>
    <radialGradient id="f" cx="50%" cy="48%" r="55%">
      <stop offset="0%" stop-color="#f0c089"/>
      <stop offset="100%" stop-color="#c98a55" stop-opacity="0"/>
    </radialGradient>
  </defs>
  <!-- background circle (burgundy) so it pops in tabs -->
  <circle cx="32" cy="32" r="31" fill="#2E0F1A"/>
  <!-- fluff bumps around head -->
  <circle cx="11" cy="32" r="7" fill="#864521"/>
  <circle cx="14" cy="18" r="6" fill="#a05e2a"/>
  <circle cx="22" cy="10" r="6" fill="#b06a30"/>
  <circle cx="32" cy="7"  r="7" fill="#c47538"/>
  <circle cx="42" cy="10" r="6" fill="#b06a30"/>
  <circle cx="50" cy="18" r="6" fill="#a05e2a"/>
  <circle cx="53" cy="32" r="7" fill="#864521"/>
  <circle cx="14" cy="44" r="6" fill="#6a3618"/>
  <circle cx="50" cy="44" r="6" fill="#6a3618"/>
  <!-- head main -->
  <circle cx="32" cy="30" r="20" fill="url(#h)"/>
  <!-- ears -->
  <path d="M18,14 L24,8 L26,18 Z" fill="#4a2410"/>
  <path d="M46,14 L40,8 L38,18 Z" fill="#4a2410"/>
  <!-- face mask -->
  <ellipse cx="32" cy="36" rx="13" ry="12" fill="url(#f)"/>
  <!-- eyes -->
  <ellipse cx="26" cy="33" rx="2.6" ry="3.2" fill="#1a0a05"/>
  <ellipse cx="38" cy="33" rx="2.6" ry="3.2" fill="#1a0a05"/>
  <circle cx="27" cy="32" r="1" fill="#fff"/>
  <circle cx="39" cy="32" r="1" fill="#fff"/>
  <!-- nose -->
  <path d="M29,39 Q32,36 35,39 Q35,43 32,45 Q29,43 29,39 Z" fill="#1a0a05"/>
  <!-- tongue/mouth -->
  <path d="M30,46 Q32,49 34,46 Q33,48 32,48 Q31,48 30,46 Z" fill="#d44a6a"/>
</svg>
